#!OML:ASF F:\VICON\USERDATA\INSTALL\rory3\rory3.ASF
:FULLY-SPECIFIED
:DEGREES
181
root -3.48916 14.7832 34.1153 -136.914 -15.3878 -188.165
lowerback 10.3794 0.42996 7.56646
upperback 2.07984 0.933565 7.40598
thorax -3.61669 0.0984523 3.41537
lowerneck -11.7611 -9.78977 -10.0638
upperneck 12.2757 -13.1106 9.00153
head 6.93652 -6.13186 3.15284
rclavicle 3.18055e-015 -7.4743e-014
rhumerus 34.2462 0.886728 -47.3624
rradius 26.1811
rwrist 15.8492
rhand -28.017 -63.0834
rfingers 7.12502
rthumb -1.40234 -1346.94
lclavicle 3.18055e-015 -7.4743e-014
lhumerus 24.468 -8.42276 15.7489
lradius 33.3428
lwrist -3.38808
lhand -39.4858 -50.9861
lfingers 7.12502
lthumb -12.4721 -21.3782
rfemur -96.357 -5.06159 24.1183
rtibia 64.5433
rfoot -10.0109 -17.4884
rtoes 16.6271
lfemur -24.4097 -2.17032 -23.3482
ltibia 35.6752
lfoot -28.1204 5.40452
ltoes -29.8919
182
root -3.47737 14.7639 33.9402 -136.075 -15.1205 -188.292
lowerback 11.0499 0.312636 7.84149
upperback 2.58055 0.769026 7.6242
thorax -3.45193 -0.00775882 3.51925
lowerneck -12.7009 -9.7534 -10.053
upperneck 11.6087 -12.8526 9.02944
head 6.85936 -5.97011 3.16211
rclavicle 3.49861e-014 4.92986e-014
rhumerus 35.8076 0.650547 -47.8097
rradius 26.3912
rwrist 16.7941
rhand -27.7456 -63.1889
rfingers 7.12502
rthumb -1.14019 -1346.83
lclavicle 3.49861e-014 4.92986e-014
lhumerus 26.3204 -7.60761 15.4978
lradius 33.5456
lwrist -4.28883
lhand -39.9925 -51.6506
lfingers 7.12502
lthumb -12.9605 -22.0731
rfemur -97.005 -4.62102 23.8679
rtibia 65.2457
rfoot -10.6852 -17.9596
rtoes 16.4935
lfemur -24.7853 -2.2208 -23.2489
ltibia 35.7629
lfoot -27.2894 4.1945
ltoes -28.9284
183
root -3.46599 14.7535 33.7651 -135.219 -14.9274 -188.296
lowerback 11.9523 0.218656 8.23629
upperback 2.59364 0.770221 7.80041
thorax -3.92943 -0.039368 3.50377
lowerneck -12.2859 -9.53194 -9.88949
upperneck 10.9004 -12.5069 8.83458
head 6.50515 -5.83086 3.14695
rclavicle -3.49861e-014 -8.42847e-014
rhumerus 36.4857 0.758942 -48.2732
rradius 26.6579
rwrist 18.12
rhand -27.7638 -62.9049
rfingers 7.12502
rthumb -1.15779 -1347.12
lclavicle -3.49861e-014 -8.42847e-014
lhumerus 28.4318 -7.93552 14.6649
lradius 33.7914
lwrist -4.64207
lhand -40.3001 -52.9142
lfingers 7.12502
lthumb -13.257 -23.3558
rfemur -97.5933 -4.11852 23.7581
rtibia 65.8608
rfoot -11.3537 -18.4426
rtoes 16.1109
lfemur -25.1737 -2.1413 -22.9955
ltibia 35.7495
lfoot -26.2458 3.19528
ltoes -28.2293
184
root -3.45632 14.7421 33.5867 -134.186 -14.7676 -188.483
lowerback 13.0216 -0.0130881 8.49841
upperback 2.46746 0.633387 8.02752
thorax -4.65173 -0.140636 3.65129
lowerneck -12.1561 -9.25603 -9.99787
upperneck 10.4643 -12.0586 8.74666
head 6.30304 -5.6338 3.20197
rclavicle -1.08139e-013 -7.63333e-014
rhumerus 37.3776 1.54175 -48.2003
rradius 26.9388
rwrist 18.5275
rhand -26.8112 -63.787
rfingers 7.12502
rthumb -0.237725 -1346.23
lclavicle -1.08139e-013 -7.63333e-014
lhumerus 30.2125 -8.38523 13.5193
lradius 34.3134
lwrist -4.49113
lhand -40.3753 -53.5078
lfingers 7.12502
lthumb -13.3295 -23.9541
rfemur -98.304 -3.7225 23.4066
rtibia 66.4752
rfoot -12.2072 -18.994
rtoes 16.2815
lfemur -25.6444 -2.16665 -22.8559
ltibia 35.5598
lfoot -24.8744 2.52217
ltoes -28.272
